<?xml version="1.0" encoding="utf-8"?>
<svg width="636px" height="209px" viewBox="0 0 636 209" version="1.1" xmlns:xlink="http://www.w3.org/1999/xlink" xmlns="http://www.w3.org/2000/svg">
  <desc>Created with Lunacy</desc>
  <g id="Group" transform="translate(2.5 2.5)">
    <path d="M0 24C0 10.7452 45.667 0 102 0C158.333 0 204 10.7452 204 24C204 37.2548 158.333 48 102 48C45.667 48 0 37.2548 0 24Z" transform="translate(0 78)" id="Oval-2" fill="none" stroke="#000000" stroke-width="5" />
    <path d="M0 24C0 10.7452 45.667 0 102 0C158.333 0 204 10.7452 204 24C204 37.2548 158.333 48 102 48C45.667 48 0 37.2548 0 24Z" transform="matrix(-4.371139E-08 1 -1 -4.371139E-08 126 0)" id="Oval-3" fill="none" stroke="#000000" stroke-width="5" />
    <path d="M0 24C0 10.7452 45.667 0 102 0C158.333 0 204 10.7452 204 24C204 37.2548 158.333 48 102 48C45.667 48 0 37.2548 0 24Z" transform="matrix(-0.7071069 0.7071066 -0.7071066 -0.7071069 191.0955 46.84569)" id="Oval-4" fill="none" stroke="#000000" stroke-width="5" />
    <path d="M0 24C0 10.7452 45.667 0 102 0C158.333 0 204 10.7452 204 24C204 37.2548 158.333 48 102 48C45.667 48 0 37.2548 0 24Z" transform="matrix(0.7071068 0.7071068 -0.7071068 0.7071068 46.84566 12.90456)" id="Oval-5" fill="none" stroke="#000000" stroke-width="5" />
  </g>
  <g id="portfolio_" transform="translate(228.5 35.5)">
    <path d="M179.424 92.6094L179.424 52.2894L171.168 52.4814Q170.976 51.7134 170.88 50.7534Q170.784 49.7934 170.784 48.8334Q170.784 46.6254 171.168 45.0894L178.944 45.1854Q178.368 39.3294 178.368 36.6414Q178.368 33.3774 179.376 30.6414Q180.384 27.9054 182.304 25.8894Q184.224 23.8734 186.912 22.7694Q189.6 21.6654 192.96 21.6654Q199.68 21.6654 205.44 23.8734Q205.44 28.1934 203.136 30.5934Q200.928 29.9214 198.96 29.5374Q196.992 29.1534 195.36 29.1534Q191.328 29.1534 189.552 31.3134Q187.776 33.4734 187.776 37.7934Q187.776 39.4254 187.968 41.2494Q188.16 43.0734 188.448 45.2814L201.984 45.0894Q202.176 45.9534 202.272 46.8654Q202.368 47.7774 202.368 48.8334Q202.368 49.7934 202.272 50.7534Q202.176 51.7134 201.984 52.4814L189.12 52.2894L189.12 92.6094Q188.064 92.8014 186.816 92.8974Q185.568 92.9934 184.224 92.9934Q182.88 92.9934 181.632 92.8974Q180.384 92.8014 179.424 92.6094ZM272.448 85.1214L276 85.1214Q276.864 87.5514 276.864 89.3979Q276.864 91.2444 276.576 92.3124Q272.736 92.9934 268.416 92.9934Q258.912 92.9934 258.912 83.1054L258.912 22.6254L259.584 22.0494L263.328 22.0494Q266.304 22.0494 267.504 23.5351Q268.704 25.0209 268.704 28.3764L268.704 80.8074Q268.704 85.1214 272.448 85.1214ZM285.696 32.0334Q285.696 34.5294 286.56 36.2574Q288.192 37.5054 291.936 37.5054Q295.776 37.4094 296.832 36.4494Q297.888 35.4894 297.984 32.0334Q297.888 28.3854 296.832 27.5214Q295.776 26.6574 291.936 26.5614Q288.576 26.6574 287.136 27.3774Q285.696 28.0974 285.696 32.0334ZM167.424 48.8334Q167.424 46.7214 166.944 45.0894L155.136 45.3774L155.136 31.1694L154.464 30.4974L150.72 30.4974Q147.744 30.4974 146.592 31.9374Q145.44 33.3774 145.44 36.8334L145.44 45.2814L138.336 45.0894Q137.952 46.9134 137.952 48.8814Q137.952 50.8494 138.336 52.4814L145.44 52.3854L145.44 83.1054Q145.44 92.9934 155.52 92.9934Q160.704 92.9934 166.272 92.3124Q166.464 91.6329 166.464 89.4459Q166.464 87.2589 165.696 85.1214L159.072 85.1214Q155.136 85.1214 155.136 80.9094L155.136 52.2894L166.944 52.4814Q167.424 50.9454 167.424 48.8334ZM17.28 90.3054Q22.848 93.4734 28.224 93.4734Q31.968 93.4734 35.328 91.7934Q38.688 90.1134 41.232 86.9454Q43.776 83.7774 45.216 79.1694Q46.656 74.5614 46.656 68.8014Q46.656 63.0414 45.552 58.4814Q44.448 53.9214 42.384 50.6574Q40.32 47.3934 37.248 45.6654Q34.176 43.9374 30.336 43.9374Q22.56 43.9374 16.992 49.6974Q15.936 44.8014 11.136 44.8014L8.064 44.8014L7.488 45.3774L7.488 112.673L8.064 113.249L11.904 113.249Q14.88 113.249 16.08 111.761Q17.28 110.273 17.28 106.913L17.28 90.3054ZM75.84 93.8574Q84.48 93.8574 89.76 88.5774Q96.576 81.7614 96.576 68.8974Q96.576 63.3294 95.184 58.7214Q93.792 54.1134 91.152 50.8014Q88.512 47.4894 84.672 45.7134Q80.832 43.9374 75.84 43.9374Q70.848 43.9374 67.008 45.7134Q63.168 47.4894 60.528 50.8014Q57.888 54.1134 56.496 58.7214Q55.104 63.3294 55.104 68.8974Q55.104 74.5614 56.496 79.1214Q57.888 83.6814 60.528 86.9934Q63.168 90.3054 67.008 92.0814Q70.848 93.8574 75.84 93.8574ZM226.656 93.8574Q235.296 93.8574 240.576 88.5774Q247.392 81.7614 247.392 68.8974Q247.392 63.3294 246 58.7214Q244.608 54.1134 241.968 50.8014Q239.328 47.4894 235.488 45.7134Q231.648 43.9374 226.656 43.9374Q221.664 43.9374 217.824 45.7134Q213.984 47.4894 211.344 50.8014Q208.704 54.1134 207.312 58.7214Q205.92 63.3294 205.92 68.8974Q205.92 74.5614 207.312 79.1214Q208.704 83.6814 211.344 86.9934Q213.984 90.3054 217.824 92.0814Q221.664 93.8574 226.656 93.8574ZM344.736 88.5774Q339.456 93.8574 330.816 93.8574Q325.824 93.8574 321.984 92.0814Q318.144 90.3054 315.504 86.9934Q312.864 83.6814 311.472 79.1214Q310.08 74.5614 310.08 68.8974Q310.08 63.3294 311.472 58.7214Q312.864 54.1134 315.504 50.8014Q318.144 47.4894 321.984 45.7134Q325.824 43.9374 330.816 43.9374Q335.808 43.9374 339.648 45.7134Q343.488 47.4894 346.128 50.8014Q348.768 54.1134 350.16 58.7214Q351.552 63.3294 351.552 68.8974Q351.552 81.7614 344.736 88.5774ZM105.6 49.7934Q106.56 46.2414 109.248 44.5134Q115.872 45.9534 117.984 53.0574Q121.824 44.5134 130.56 44.5134Q132.864 44.5134 135.648 45.0894Q135.648 50.6574 133.248 54.4974Q132.384 54.2094 129.312 54.0174Q122.784 54.0174 119.04 61.3134L119.04 92.6094Q117.216 92.9934 114.096 92.9934Q110.976 92.9934 109.152 92.6094L109.152 59.6814Q109.152 53.1534 105.6 49.7934ZM298.56 92.6094L298.56 53.4414Q298.56 49.5054 296.496 47.2014Q294.432 44.8974 290.784 44.8974L289.44 44.8974Q286.56 44.8974 283.392 45.2814Q282.912 47.4894 282.912 48.9294Q282.912 50.3694 283.392 52.4814L284.448 52.4814Q286.752 52.4814 287.712 53.6334Q288.672 54.7854 288.672 57.4734L288.672 92.6094Q290.496 92.9934 293.616 92.9934Q296.736 92.9934 298.56 92.6094ZM65.472 68.8974Q65.472 51.5214 75.888 51.5214Q86.4 51.5214 86.4 68.8974Q86.4 86.2734 75.888 86.2734Q65.472 86.2734 65.472 68.8974ZM216.288 68.8974Q216.288 51.5214 226.704 51.5214Q237.216 51.5214 237.216 68.8974Q237.216 86.2734 226.704 86.2734Q216.288 86.2734 216.288 68.8974ZM330.864 51.5214Q320.448 51.5214 320.448 68.8974Q320.448 86.2734 330.864 86.2734Q341.376 86.2734 341.376 68.8974Q341.376 51.5214 330.864 51.5214ZM17.28 58.5474Q21.6 52.2894 27.84 52.2894Q31.584 52.2894 34.08 56.2366Q36.576 60.1839 36.576 68.5599Q36.576 76.7439 33.84 81.1726Q31.104 85.6014 26.592 85.6014Q24.48 85.6014 22.128 84.6864Q19.776 83.7714 17.28 82.1349L17.28 58.5474ZM355.776 107.489L406.656 107.489Q407.04 105.953 407.04 103.649Q407.04 101.345 406.656 99.7134L355.776 99.7134Q355.296 101.249 355.296 103.649Q355.296 106.049 355.776 107.489Z" />
  </g>
</svg>